<?xml version="1.0" standalone="no"?>
<!DOCTYPE svg PUBLIC "-//W3C//DTD SVG 20010904//EN"
 "http://www.w3.org/TR/2001/REC-SVG-20010904/DTD/svg10.dtd">
<svg version="1.0" xmlns="http://www.w3.org/2000/svg"
 width="16.000000pt" height="16.000000pt" viewBox="0 0 16.000000 16.000000"
 preserveAspectRatio="xMidYMid meet">
<metadata>
Created by potrace 1.11, written by Peter Selinger 2001-2013
</metadata>
<g transform="translate(0.000000,16.000000) scale(0.002749,-0.002749)"
fill="#000000" stroke="none">
<path d="M1458 4468 l-3 -123 -482 -3 -483 -2 0 -120 0 -120 -120 0 -120 0 0
-120 0 -120 -120 0 -120 0 0 -970 0 -969 117 -3 118 -3 3 -122 3 -123 119 0
120 0 0 -120 0 -120 485 0 485 0 0 -120 0 -120 1455 0 1455 0 0 120 0 120 485
0 485 0 0 120 0 120 120 0 120 0 0 125 0 125 120 0 120 0 0 970 0 970 -120 0
-120 0 0 120 0 120 -120 0 -120 0 0 120 0 120 -485 0 -485 0 0 125 0 125
-1455 0 -1454 0 -3 -122z m2402 -853 l0 -144 143 -3 142 -3 0 -290 0 -290
-142 -3 -143 -3 0 -144 0 -145 -295 0 -295 0 0 -289 0 -289 -122 -7 c-68 -4
-134 -5 -148 -4 l-25 4 -3 733 -2 732 150 0 150 0 0 145 0 145 295 0 295 0 0
-145z m1170 -579 l0 -723 46 -7 c26 -3 89 -6 140 -6 l94 0 0 -143 0 -144 -167
-6 c-210 -9 -412 -9 -575 0 l-128 6 0 144 0 143 58 0 c31 0 94 3 140 7 l82 6
0 428 0 429 -140 0 -140 0 0 150 0 150 140 0 140 0 0 145 0 145 155 0 155 0 0
-724z m-3520 649 l0 -65 -65 0 -65 0 0 65 0 65 65 0 65 0 0 -65z m440 0 l0
-65 -65 0 -65 0 0 65 0 65 65 0 65 0 0 -65z m-580 -145 l0 -70 -70 0 -70 0 0
70 0 70 70 0 70 0 0 -70z m440 -5 l0 -75 70 0 70 0 0 -70 0 -70 75 0 75 0 0
-70 0 -70 -75 0 -75 0 0 -70 0 -70 -65 0 -64 0 -3 68 -3 67 -150 0 -150 0 -3
-67 -3 -68 -64 0 -65 0 0 70 0 70 -75 0 -75 0 0 70 0 70 75 0 75 0 0 70 0 70
70 0 70 0 0 75 0 75 145 0 145 0 0 -75z m290 5 l0 -70 -70 0 -70 0 0 70 0 70
70 0 70 0 0 -70z m-1170 -435 l0 -65 -70 0 -70 0 0 65 0 65 70 0 70 0 0 -65z
m290 -5 l0 -70 75 0 75 0 0 -145 0 -145 -75 0 -75 0 0 -70 0 -70 -65 0 -65 0
0 70 0 70 -75 0 -75 0 0 145 0 145 75 0 75 0 0 70 0 70 65 0 65 0 0 -70z
m1020 0 l0 -70 75 0 75 0 0 -145 0 -145 -75 0 -75 0 0 -70 0 -70 -65 0 -65 0
0 70 0 70 -75 0 -75 0 0 145 0 145 75 0 75 0 0 70 0 70 65 0 65 0 0 -70z m290
5 l0 -65 -65 0 -65 0 0 65 0 65 65 0 65 0 0 -65z m-1600 -440 l0 -65 -70 0
-70 0 0 65 0 65 70 0 70 0 0 -65z m582 -2 l3 -68 150 0 150 0 3 68 3 67 64 0
65 0 0 -70 0 -70 75 0 75 0 0 -70 0 -70 -75 0 -75 0 0 -70 0 -70 -70 0 -70 0
0 -75 0 -75 -145 0 -145 0 0 75 0 75 -70 0 -70 0 0 70 0 70 -75 0 -75 0 0 70
0 70 75 0 75 0 0 70 0 70 65 0 64 0 3 -67z m1018 2 l0 -65 -65 0 -65 0 0 65 0
65 65 0 65 0 0 -65z m-1160 -435 l0 -70 -70 0 -70 0 0 70 0 70 70 0 70 0 0
-70z m730 0 l0 -70 -70 0 -70 0 0 70 0 70 70 0 70 0 0 -70z m-590 -150 l0 -70
-65 0 -65 0 0 70 0 70 65 0 65 0 0 -70z m440 0 l0 -70 -65 0 -65 0 0 70 0 70
65 0 65 0 0 -70z"/>
<path d="M3270 3175 l0 -285 290 0 290 0 0 285 0 285 -290 0 -290 0 0 -285z"/>
</g>
</svg>
